<?xml version="1.0" standalone="no"?>
<!DOCTYPE svg PUBLIC "-//W3C//DTD SVG 20010904//EN"
 "http://www.w3.org/TR/2001/REC-SVG-20010904/DTD/svg10.dtd">
<svg version="1.0" xmlns="http://www.w3.org/2000/svg"
 width="86.000000pt" height="86.000000pt" viewBox="0 0 86.000000 86.000000"
 preserveAspectRatio="xMidYMid meet">
<metadata>
Created by potrace 1.11, written by Peter Selinger 2001-2013
</metadata>
<g transform="translate(0.000000,86.000000) scale(0.100000,-0.100000)"
fill="#000000" stroke="none">
<path d="M323 830 c-194 -53 -326 -237 -310 -430 19 -231 203 -395 432 -385
94 4 164 28 234 80 98 71 166 199 170 320 2 56 1 59 -13 40 -8 -11 -16 -24
-16 -28 0 -13 -69 -117 -109 -164 -61 -74 -204 -153 -274 -153 -16 0 -11 6 20
20 142 64 285 206 362 358 19 37 20 48 11 77 l-11 34 -46 -57 c-153 -189 -330
-295 -530 -317 -56 -6 -62 -5 -73 15 -15 28 -8 34 38 36 221 8 419 122 550
315 17 27 32 53 32 58 0 24 -21 18 -56 -17 -104 -101 -244 -182 -361 -208 -48
-10 -197 -14 -212 -5 -32 20 -4 34 75 36 127 4 212 28 313 87 73 44 193 162
185 182 -8 22 -14 20 -53 -13 -51 -44 -187 -108 -266 -127 -66 -15 -216 -16
-231 -2 -10 11 33 82 73 119 72 69 145 92 288 91 l100 -1 -41 18 c-82 37 -192
45 -281 21z"/>
</g>
</svg>
